<svg width="27" height="27" viewBox="0 0 27 27" fill="none" xmlns="http://www.w3.org/2000/svg">
<path d="M13.5 1.96875C14.4339 1.96869 15.3324 2.326 16.0113 2.96738C16.6901 3.60876 17.0978 4.48559 17.1506 5.418L17.1562 5.625H23.0625C23.2763 5.62507 23.4821 5.70627 23.6383 5.85222C23.7945 5.99816 23.8895 6.19796 23.904 6.41124C23.9186 6.62452 23.8517 6.83538 23.7168 7.00121C23.5819 7.16704 23.389 7.27549 23.1772 7.30463L23.0625 7.3125H22.167L20.727 21.96C20.6549 22.6902 20.3255 23.3711 19.7977 23.8809C19.27 24.3907 18.5782 24.6964 17.8459 24.7432L17.6479 24.75H9.35212C8.61802 24.75 7.90784 24.4889 7.34851 24.0135C6.78917 23.538 6.41713 22.8791 6.29887 22.1546L6.273 21.9589L4.83188 7.3125H3.9375C3.73361 7.31249 3.53662 7.23865 3.38295 7.10464C3.22929 6.97062 3.12935 6.7855 3.10162 6.5835L3.09375 6.46875C3.09376 6.26486 3.1676 6.06787 3.30161 5.9142C3.43563 5.76054 3.62075 5.6606 3.82275 5.63287L3.9375 5.625H9.84375C9.84375 4.6553 10.229 3.72532 10.9146 3.03964C11.6003 2.35396 12.5303 1.96875 13.5 1.96875ZM20.4716 7.3125H6.52725L7.95262 21.7935C7.98419 22.1166 8.12658 22.4189 8.35563 22.6489C8.58468 22.879 8.88628 23.0227 9.20925 23.0557L9.35212 23.0625H17.6479C18.3229 23.0625 18.8955 22.5844 19.026 21.9352L19.0485 21.7935L20.4705 7.3125H20.4716ZM15.4688 10.4062C15.6726 10.4063 15.8696 10.4801 16.0233 10.6141C16.177 10.7481 16.2769 10.9333 16.3046 11.1353L16.3125 11.25V19.125C16.3124 19.3388 16.2312 19.5446 16.0853 19.7008C15.9393 19.857 15.7395 19.952 15.5263 19.9665C15.313 19.9811 15.1021 19.9142 14.9363 19.7793C14.7705 19.6444 14.662 19.4515 14.6329 19.2397L14.625 19.125V11.25C14.625 11.0262 14.7139 10.8116 14.8721 10.6534C15.0304 10.4951 15.245 10.4062 15.4688 10.4062ZM11.5312 10.4062C11.7351 10.4063 11.9321 10.4801 12.0858 10.6141C12.2395 10.7481 12.3394 10.9333 12.3671 11.1353L12.375 11.25V19.125C12.3749 19.3388 12.2937 19.5446 12.1478 19.7008C12.0018 19.857 11.802 19.952 11.5888 19.9665C11.3755 19.9811 11.1646 19.9142 10.9988 19.7793C10.833 19.6444 10.7245 19.4515 10.6954 19.2397L10.6875 19.125V11.25C10.6875 11.0262 10.7764 10.8116 10.9346 10.6534C11.0929 10.4951 11.3075 10.4062 11.5312 10.4062ZM13.5 3.65625C13.0059 3.65627 12.5299 3.84207 12.1664 4.17676C11.803 4.51146 11.5787 4.97059 11.538 5.463L11.5312 5.625H15.4688C15.4688 5.10285 15.2613 4.6021 14.8921 4.23288C14.5229 3.86367 14.0221 3.65625 13.5 3.65625Z" fill="#FF4B4B"/>
</svg>
