<svg width="29" height="23" viewBox="0 0 29 23" fill="none" xmlns="http://www.w3.org/2000/svg">
<path d="M23.45 7.375V7.975H24.05H26.85C27.302 7.975 27.6498 8.33226 27.6496 8.74966V8.75V10.9311C27.6496 11.1334 27.5679 11.3293 27.4192 11.4754L25.484 13.3761C24.8277 13.1171 24.1112 12.9629 23.35 12.9629C21.5509 12.9629 19.9575 13.7727 18.8879 15.0254H15.65H15.05V15.6254V15.8832C15.05 16.0638 14.8979 16.2286 14.6875 16.2286H14.3742H13.9293L13.8001 16.6544C13.6834 17.0389 13.5261 17.4115 13.3272 17.774L13.1086 18.1723L13.4328 18.4907L13.6541 18.7081C13.7905 18.8421 13.7905 19.0548 13.6541 19.1887L12.2931 20.5255C12.1507 20.6654 11.9153 20.6654 11.7729 20.5255L11.5515 20.3081L11.2383 20.0005L10.8504 20.2058C10.4802 20.4018 10.0995 20.5569 9.70604 20.672L9.27456 20.7983V21.2479V21.5547C9.27456 21.7352 9.12249 21.9 8.91206 21.9H6.98706C6.77663 21.9 6.62456 21.7352 6.62456 21.5547V21.2475V20.7979L6.19309 20.6716C5.79967 20.5565 5.41893 20.4013 5.04873 20.2054L4.66079 20.0001L4.34764 20.3076L4.12626 20.5251C3.98386 20.6649 3.74845 20.6649 3.60605 20.5251L2.24499 19.1883C2.10861 19.0544 2.10861 18.8416 2.24499 18.7077L2.46636 18.4903L2.79036 18.172L2.57209 17.7738C2.37318 17.4109 2.21615 17.0386 2.09892 16.6531L1.96954 16.2277H1.52487H1.2125C1.00207 16.2277 0.85 16.0629 0.85 15.8824V13.9918C0.85 13.8112 1.00207 13.6464 1.2125 13.6464H1.52531H1.97028L2.09947 13.2206C2.21615 12.8361 2.37348 12.4636 2.5724 12.101L2.79095 11.7027L2.4668 11.3843L2.24542 11.1669C2.10905 11.033 2.10905 10.8202 2.24542 10.6863L3.60649 9.34952L3.18606 8.92145L3.60649 9.34952C3.72531 9.23282 3.92788 9.21415 4.08517 9.33462L5.05 10.0736V8.85828V2.5625C5.05 1.76664 5.71307 1.1 6.55 1.1L12.3884 1.1L12.389 1.1C12.685 1.09971 12.9737 1.18503 13.2191 1.34417C13.4644 1.50322 13.6549 1.72855 13.7686 1.99081L13.7692 1.9921L16.2232 7.615L16.3803 7.975H16.7731H21.25H21.85V7.375V5.64766C21.85 4.50311 22.2612 3.39743 22.9991 2.52329L22.9992 2.52314C23.0251 2.49251 23.0609 2.4763 23.0976 2.475C23.1326 2.47376 23.1586 2.48585 23.1775 2.50661L23.1777 2.50685L24.1241 3.5454L24.1245 3.54588C24.1418 3.56483 24.1495 3.58668 24.1508 3.60212C24.1512 3.60727 24.1508 3.61048 24.1505 3.61189C23.7014 4.19085 23.45 4.90541 23.45 5.64766V7.375ZM6.65 7.375V7.975H7.25H8.9125H13.7268H14.6433L14.2767 7.135L12.4763 3.01L12.3192 2.65H11.9264H7.25H6.65V3.25V7.375ZM20.1 18.7188C20.1 16.972 21.5449 15.5375 23.35 15.5375C25.1551 15.5375 26.6 16.972 26.6 18.7188C26.6 20.4655 25.1551 21.9 23.35 21.9C21.5449 21.9 20.1 20.4655 20.1 18.7188ZM21.7 18.7188C21.7 19.6287 22.4501 20.35 23.35 20.35C24.2499 20.35 25 19.6287 25 18.7188C25 17.8088 24.2499 17.0875 23.35 17.0875C22.4501 17.0875 21.7 17.8088 21.7 18.7188ZM3.85 14.9375C3.85 17.1774 5.69599 18.975 7.95 18.975C10.204 18.975 12.05 17.1774 12.05 14.9375C12.05 12.6976 10.204 10.9 7.95 10.9C5.69599 10.9 3.85 12.6976 3.85 14.9375Z" stroke="white" stroke-width="1.2"/>
</svg>
