<svg xmlns="http://www.w3.org/2000/svg" viewBox="0 0 27 32" fill="currentColor"><path opacity="0.7" fill-rule="evenodd" clip-rule="evenodd" d="M25.5745 13.8477C24.75 11.2243 24.22 10.0096 23.9775 9.51885L23.9774 9.5187C23.7865 9.12538 23.3086 8.28848 23.2703 8.22149L23.2703 8.22139L23.2685 8.21827C23.1992 8.13377 21.483 6.07989 17.3464 4.56073L16.7998 6.04892C18.7557 6.76723 20.0944 7.59673 20.9237 8.22038C18.6331 7.53733 15.9094 7.1193 13.497 7.1193C11.0818 7.1193 8.35476 7.53854 6.06244 8.22308C6.83021 7.65343 8.22634 6.77167 10.1942 6.04892L9.64763 4.56073C5.51113 6.07989 3.79479 8.13377 3.72556 8.21827C3.72556 8.21827 3.31784 8.87644 2.97528 9.59913C2.95772 9.63617 2.93778 9.67727 2.91547 9.72326C2.67687 10.215 2.16766 11.2644 1.41437 13.8648C0.381244 17.432 0.0143218 22.4742 0 22.6759C0.182378 23.0749 2.29629 26.4393 7.98472 26.4393L9.54347 24.1822C10.83 24.5159 12.1573 24.6848 13.4971 24.6848C14.8398 24.6848 16.1697 24.5152 17.4587 24.1801L19.0078 26.4393C24.8094 26.4393 26.7032 23.1894 27 22.6668C26.9771 22.4266 26.4025 16.4824 25.5745 13.8477ZM24.0562 23.4571C22.8495 24.3111 21.4318 24.7772 19.8372 24.8452L19.0374 23.6789C20.1404 23.2633 21.1986 22.7224 22.1931 22.0605L21.3146 20.7407C20.2054 21.4791 19.0078 22.0504 17.7543 22.4459V22.4475C17.7543 22.4475 15.6787 23.0993 13.4972 23.0993C11.3157 23.0993 9.24583 22.4494 9.24583 22.4494V22.4477C7.99022 22.0521 6.79068 21.4802 5.67977 20.7407L4.80122 22.0605C5.7974 22.7235 6.85764 23.2651 7.96274 23.681L7.15876 24.8452C5.56345 24.7775 4.14517 24.3113 2.93807 23.457C2.26511 22.9807 1.83155 22.4978 1.62317 22.2379C1.71512 21.1519 2.0914 17.2265 2.93744 14.3059C3.57241 12.114 4.01073 11.0883 4.25002 10.5931C4.25002 10.5931 10.3861 8.70468 13.4972 8.70468C16.6057 8.70468 20.3984 9.47695 22.7236 10.5832C22.975 11.156 23.4225 12.288 24.062 14.323C24.7367 16.4698 25.24 21.0319 25.3655 22.2447C25.1541 22.5074 24.7225 22.9854 24.0562 23.4571ZM8.24609 15.37H9.83153V18.0124H8.24609V15.37ZM18.7475 15.37H17.1621V18.0124H18.7475V15.37Z" fill="currentColor"/></svg>