<svg xmlns="http://www.w3.org/2000/svg" viewBox="0 0 28 32" fill="currentColor"><g clip-path="url(#clip0)"><path opacity="0.7" d="M27.38 7.54159C26.3883 7.97444 25.3394 8.26227 24.2656 8.39625C25.3974 7.72395 26.2438 6.66048 26.6449 5.40671C25.5847 6.03523 24.425 6.47829 23.2158 6.71683C22.4748 5.92316 21.512 5.37101 20.4528 5.13228C19.3936 4.89356 18.2871 4.97932 17.2773 5.37841C16.2676 5.77749 15.4014 6.47141 14.7916 7.36976C14.1818 8.26812 13.8566 9.32929 13.8585 10.4151C13.8585 10.8441 13.8937 11.2556 13.9834 11.6478C11.832 11.5424 9.72719 10.984 7.80652 10.0092C5.88586 9.03428 4.19266 7.66488 2.83768 5.99055C2.37167 6.79948 2.09733 7.72624 2.09733 8.72334C2.09733 10.5962 3.06278 12.2563 4.49951 13.2182C3.64428 13.1945 2.80722 12.966 2.05865 12.5517V12.6097C2.05965 13.8585 2.49118 15.0688 3.28048 16.0365C4.06979 17.0043 5.1686 17.6703 6.39171 17.9223C5.95032 18.0454 5.46847 18.1034 4.9708 18.1034C4.62437 18.1034 4.27618 18.0841 3.94733 18.0102C4.29712 19.0833 4.97062 20.0217 5.87529 20.6965C6.77996 21.3713 7.8714 21.7494 8.99964 21.7788C7.08575 23.2767 4.72464 24.0891 2.29429 24.086C1.85114 24.086 1.42557 24.0667 1 24.0122C3.47323 25.6053 6.3549 26.4482 9.29684 26.439C19.2485 26.439 24.6877 18.1949 24.6877 11.0499C24.6866 10.8171 24.6802 10.5843 24.6683 10.3518C25.7352 9.58728 26.6541 8.63504 27.38 7.54159V7.54159Z" stroke="white" stroke-width="1.5" stroke-miterlimit="10" stroke-linecap="round" stroke-linejoin="round"/></g><defs><clipPath id="clip0"><rect width="28" height="32" fill="currentColor"/></clipPath></defs></svg>