<svg xmlns="http://www.w3.org/2000/svg" viewBox="0 0 26 32" fill="currentColor"><path opacity="0.7" d="M13 3C5.85512 3 0 8.9059 0 16.0508C0 23.1542 5.80176 29 13 29C20.1893 29 26 23.1629 26 16.0508C26 8.9059 20.1449 3 13 3ZM15.2852 27.248C14.554 27.4004 13.777 27.4766 13 27.4766C12.223 27.4766 11.446 27.4004 10.7148 27.248V23.6832C10.7148 22.8301 10.9434 22.5254 11.248 22.114C11.4032 21.9366 11.4968 21.7776 12.1925 20.7278L11.0195 20.5449C8.00301 20.1032 6.8148 18.5339 6.3425 17.3152C5.73312 15.6852 6.05309 13.6436 7.15004 12.3489C7.31766 12.1507 7.45473 11.8155 7.33293 11.4652C7.10422 10.7644 7.13477 9.65234 7.28711 9.22566C8.09485 9.34111 8.9254 9.91974 9.61809 10.3379C9.93726 10.5242 10.1047 10.475 10.2578 10.4902C10.8144 10.3744 11.6827 10.0941 13.0153 10.0941C13.8379 10.0941 14.7063 10.2159 15.5595 10.4597C15.712 10.4561 15.9572 10.5858 16.3821 10.3379C17.1061 9.89673 17.9085 9.33794 18.7129 9.22566C18.8652 9.65234 18.8958 10.7644 18.6673 11.4652C18.5453 11.8155 18.6823 12.1507 18.8502 12.3489C19.9469 13.6438 20.2669 15.6852 19.6575 17.3152C19.1852 18.5339 17.997 20.1032 14.9805 20.5449L13.8075 20.7278C14.5266 21.8129 14.6024 21.943 14.7522 22.114C15.0566 22.5254 15.2852 22.8301 15.2852 23.6832V27.248ZM16.8086 26.8063V23.6832C16.8086 22.8148 16.6257 22.236 16.3819 21.8093C18.6976 21.1848 20.343 19.8136 21.0742 17.8484C21.8512 15.7766 21.5009 13.3086 20.2058 11.6023C20.4345 10.5817 20.4345 8.95152 19.886 8.1898C19.6422 7.85477 19.307 7.67188 18.8805 7.67188C18.8652 7.67188 18.8652 7.67188 18.8652 7.67188C17.684 7.73575 16.7542 8.33064 15.7575 8.93625C14.8434 8.69246 13.9141 8.57066 12.9847 8.57066C12.0403 8.57066 11.0957 8.70773 10.258 8.93625C9.20866 8.30347 8.28786 7.73416 7.07387 7.67188C6.69301 7.67188 6.35777 7.85477 6.11398 8.1898C5.5657 8.95152 5.5657 10.5817 5.79422 11.6023C4.4991 13.3086 4.14879 15.7917 4.92578 17.8484C5.65695 19.8136 7.30238 21.1848 9.61809 21.8093C9.42905 22.14 9.27948 22.5667 9.22057 23.1441C8.75282 23.3054 8.34717 23.3579 7.96988 23.247C7.57196 23.1294 7.26192 22.8638 6.99254 22.4107C6.38753 21.3943 5.35703 20.5646 4.1837 20.6725L4.3176 22.19C4.86092 22.1402 5.40166 22.715 5.68254 23.1889C6.14592 23.9693 6.77017 24.4811 7.53844 24.708C8.10873 24.876 8.63004 24.872 9.19141 24.7522V26.8063C4.75816 25.2523 1.52344 21.0172 1.52344 16.0508C1.52344 9.74379 6.69301 4.52344 13 4.52344C19.307 4.52344 24.4766 9.74379 24.4766 16.0508C24.4766 21.0172 21.2418 25.2523 16.8086 26.8063Z" fill="currentColor"/></svg>