<svg xmlns="http://www.w3.org/2000/svg" viewBox="0 0 30 32" fill="currentColor"><path opacity="0.7" d="M17.5608 1.92C16.9604 1.92 16.3857 2.16512 15.9608 2.56C15.5358 2.95488 15.2331 3.47776 15.0008 4.09984C14.588 5.21024 14.4158 6.6528 14.3806 8.33984C11.3105 8.4352 8.4862 9.22944 6.2206 10.5402C5.55165 9.90991 4.66314 9.56562 3.74419 9.58056C2.82523 9.5955 1.94839 9.9685 1.30028 10.6202C0.970546 10.9476 0.708856 11.3371 0.530279 11.7661C0.351702 12.1952 0.259766 12.6553 0.259766 13.12C0.259766 13.5847 0.351702 14.0448 0.530279 14.4739C0.708856 14.9029 0.970546 15.2924 1.30028 15.6198L1.46028 15.7798C1.12172 16.663 0.920758 17.5923 0.920758 18.56C0.920758 21.4573 2.563 24.055 5.12108 25.8803C7.67852 27.7043 11.1659 28.8 15.0008 28.8C18.8356 28.8 22.323 27.7056 24.8811 25.8797C27.4385 24.0557 29.0808 21.4579 29.0808 18.56C29.0808 17.5923 28.8804 16.6624 28.5406 15.7798L28.7006 15.6198C29.0303 15.2924 29.292 14.9029 29.4706 14.4739C29.6492 14.0448 29.7411 13.5847 29.7411 13.12C29.7411 12.6553 29.6492 12.1952 29.4706 11.7661C29.292 11.3371 29.0303 10.9476 28.7006 10.6202C28.0525 9.96869 27.1758 9.59581 26.257 9.58087C25.3382 9.56593 24.4498 9.9101 23.7809 10.5402C21.5256 9.23776 18.7128 8.4416 15.66 8.3392C15.7003 6.74944 15.8724 5.41952 16.2001 4.53952C16.3857 4.0416 16.6174 3.68448 16.8401 3.47904C17.0635 3.27488 17.2657 3.2 17.5608 3.2C17.8552 3.2 17.9985 3.28 18.2206 3.45984C18.4433 3.64032 18.7032 3.93472 19.0411 4.28032C19.6427 4.89728 20.5656 5.5776 22.1003 5.72032C22.3864 7.19232 23.6888 8.32 25.2408 8.32C27.0008 8.32 28.4408 6.88 28.4408 5.12C28.4408 3.36 27.0008 1.92 25.2408 1.92C23.708 1.92 22.4081 3.0144 22.1009 4.46016C20.9604 4.35008 20.458 3.90976 19.9608 3.39968C19.6728 3.10528 19.4084 2.75968 19.0404 2.46016C18.6241 2.1152 18.1014 1.92442 17.5608 1.92V1.92ZM25.2408 3.2C26.3083 3.2 27.1608 4.05248 27.1608 5.12C27.1608 6.18752 26.3083 7.04 25.2408 7.04C24.1732 7.04 23.3208 6.18752 23.3208 5.12C23.3208 4.05248 24.1732 3.2 25.2408 3.2ZM15.0008 9.6C18.5912 9.6 21.8334 10.6323 24.1406 12.2803C26.4484 13.927 27.8008 16.1453 27.8008 18.56C27.8008 20.9747 26.4484 23.1923 24.1406 24.8403C21.8334 26.487 18.5912 27.52 15.0008 27.52C11.4104 27.52 8.16812 26.4877 5.86092 24.8397C3.55308 23.193 2.20076 20.9747 2.20076 18.56C2.20076 16.1453 3.55308 13.9277 5.86092 12.2797C8.16812 10.633 11.4104 9.6 15.0008 9.6ZM3.80076 10.8403C4.25068 10.8403 4.70572 10.9747 5.1006 11.2602C3.81804 12.1798 2.76844 13.2928 2.04076 14.5402C1.29324 13.6301 1.34316 12.377 2.20076 11.52C2.65836 11.0624 3.23116 10.8397 3.80076 10.8397V10.8403ZM26.2008 10.8403C26.7704 10.8403 27.3432 11.0624 27.8008 11.52C28.6584 12.3776 28.7083 13.6301 27.9608 14.5402C27.2331 13.2922 26.1835 12.1798 24.9009 11.2602C25.279 10.9864 25.734 10.8392 26.2008 10.8397V10.8403ZM9.88076 14.08C8.47276 14.08 7.32076 15.232 7.32076 16.64C7.32076 18.048 8.47276 19.2 9.88076 19.2C11.2888 19.2 12.4408 18.048 12.4408 16.64C12.4408 15.232 11.2888 14.08 9.88076 14.08ZM20.1208 14.08C18.7128 14.08 17.5608 15.232 17.5608 16.64C17.5608 18.048 18.7128 19.2 20.1208 19.2C21.5288 19.2 22.6808 18.048 22.6808 16.64C22.6808 15.232 21.5288 14.08 20.1208 14.08ZM9.88076 15.36C10.5956 15.36 11.1608 15.9251 11.1608 16.64C11.1608 17.3549 10.5956 17.92 9.88076 17.92C9.16588 17.92 8.60076 17.3549 8.60076 16.64C8.60076 15.9251 9.16588 15.36 9.88076 15.36ZM20.1208 15.36C20.8356 15.36 21.4008 15.9251 21.4008 16.64C21.4008 17.3549 20.8356 17.92 20.1208 17.92C19.4059 17.92 18.8408 17.3549 18.8408 16.64C18.8408 15.9251 19.4059 15.36 20.1208 15.36ZM20.8606 21.6602C20.8268 21.6641 20.7935 21.6708 20.7608 21.68C20.5585 21.7203 20.3883 21.8528 20.3006 22.0403C20.3006 22.0403 19.9659 22.505 19.1211 23.04C18.2763 23.575 16.9579 24.1203 15.0008 24.1203C13.043 24.1203 11.7259 23.575 10.8804 23.04C10.0356 22.505 9.70092 22.0397 9.70092 22.0397C9.63018 21.9286 9.52684 21.8421 9.40506 21.7921C9.28328 21.742 9.14899 21.7308 9.0206 21.76C8.9187 21.7855 8.82465 21.8358 8.74676 21.9063C8.66887 21.9768 8.60953 22.0654 8.57399 22.1642C8.53844 22.2631 8.52778 22.3692 8.54294 22.4731C8.5581 22.5771 8.59862 22.6757 8.66092 22.7603C8.66092 22.7603 9.15372 23.4701 10.1809 24.1197C11.2081 24.7699 12.7985 25.3997 15.0008 25.3997C17.203 25.3997 18.7934 24.7699 19.8206 24.1197C20.8484 23.4701 21.3406 22.7603 21.3406 22.7603C21.435 22.6697 21.4994 22.5524 21.5251 22.424C21.5508 22.2957 21.5365 22.1626 21.4842 22.0426C21.4319 21.9227 21.3441 21.8216 21.2326 21.7531C21.1211 21.6846 20.9912 21.652 20.8606 21.6595V21.6602Z" fill="currentColor"/></svg>