<svg width="28" height="28" viewBox="0 0 28 28" fill="none" xmlns="http://www.w3.org/2000/svg">
<path d="M25.9113 22.8863L24.281 23.2848L23.9436 23.5409L9.56092 21.6068H1.05273L4.09074 14.0873L9.02971 14.1168L10.2258 16.2873L14.1713 20.3831L13.6602 17.8328L17.1816 18.4589L23.9436 23.5409L18.5991 18.4589L17.7216 16.0313L14.6346 8.51277C14.6346 8.51277 12.2626 4.313 12.2136 4.26593C12.2804 4.27469 17.7216 4.24623 17.7216 4.24623L18.7149 8.2851L20.9056 16.0313L21.5035 18.1273L23.625 20.5823L21.8989 17.9467L23.0269 17.4728L23.5671 19.8622L23.6161 20.5823L25.9113 22.8863Z" fill="#F58C25"/>
<path d="M9.02975 14.1157L4.09078 14.0873L2.91366 12.845L3.65646 12.3524L2.32566 11.641L3.46379 11.3378L1.90137 10.3713L2.83682 9.97286L3.06846 8.53135L5.66323 3.77226L9.17452 0.74585L12.2036 4.26371L14.6346 8.50179L9.02975 14.1147V14.1157Z" fill="#81491F"/>
<path d="M1.05273 21.6068H9.56983L11.8951 24.6595C11.8951 24.6595 6.10753 26.3758 3.20316 27.2481C2.46037 25.3042 1.75544 23.4555 1.05273 21.6068Z" fill="#E48027"/>
<path d="M23.9536 8.72078L24.6385 9.4979L24.1374 10.0868L24.8312 10.5793L24.33 11.2339L24.4458 12.2671L23.5872 13.2719L18.7151 8.28515L26.4805 1.96088L23.9536 8.72078Z" fill="#81491F"/>
<path d="M23.9447 23.5409L23.9736 25.4278L21.2051 26.8026L11.8861 24.6683C11.8861 24.6683 11.8182 24.7164 11.8861 24.6683C15.7928 24.2994 23.9447 23.5409 23.9447 23.5409Z" fill="#D9C6B7"/>
<path d="M26.4801 1.96088L18.7148 8.28516L17.7214 4.24629L26.4801 1.96088Z" fill="#E48027"/>
<path d="M18.7151 8.28499L23.5772 13.2718L23.3745 15.8604L20.9056 16.031L18.7151 8.28499Z" fill="#E57F24"/>
<path d="M11.886 24.6582L21.2037 26.7926L23.9723 25.4167L25.8732 25.2559L24.4255 27.1144L20.4999 27.4647L11.886 24.6582Z" fill="#C7B7AB"/>
<path d="M11.8847 24.6594L9.56946 21.6057L14.171 20.3831L11.8847 24.6594Z" fill="#D76F21"/>
<path d="M25.8733 25.256C25.2363 25.3129 24.6094 25.3698 23.9724 25.418L23.9434 23.5309L24.2809 23.2749L25.9112 22.8863C25.9112 22.8863 26.4613 23.2649 26.9335 23.5309C26.5582 24.1374 26.2097 24.6966 25.8733 25.256Z" fill="#2A2626"/>
<path d="M20.9043 16.0313L23.3744 15.8605L23.0369 17.4728L22.1014 16.3727L21.8988 17.9467L23.6249 20.5824L21.5035 18.1174L20.9054 16.0313H20.9043Z" fill="#D66F21"/>
<path d="M9.02966 14.1156L14.6346 8.50278L17.7216 16.031L10.2268 16.2872L9.02966 14.1156Z" fill="#E47E25"/>
<path d="M11.886 24.6594L14.1723 20.3831L23.9444 23.5409L11.886 24.6594Z" fill="#E47F26"/>
<path d="M10.2268 16.2873L17.7215 16.0312L17.1815 18.459L15.9186 16.5435L13.6613 17.8329L10.2268 16.2873Z" fill="#D66F21"/>
<path d="M17.1816 18.459L17.7217 16.0312L18.5992 18.459L23.9447 23.541C23.9447 23.541 18.7251 19.6247 17.1816 18.459Z" fill="#E47F25"/>
<path d="M17.1818 18.4589L13.6605 17.8328L15.9178 16.5434L17.1818 18.4589Z" fill="#32404E"/>
<path d="M13.6613 17.8327L14.1724 20.383L10.2268 16.2882L13.6613 17.8338V17.8327Z" fill="#E57F25"/>
<path d="M21.8988 17.9467L22.1014 16.3727L23.0369 17.4717L21.8988 17.9467Z" fill="#38424D"/>
<path d="M23.0371 17.4728L23.3745 15.8605L23.7309 17.5767L23.5773 19.8622L23.0371 17.4728Z" fill="#E57F24"/>
</svg>
