<svg width="26" height="26" viewBox="0 0 26 26" fill="none" xmlns="http://www.w3.org/2000/svg">
<path d="M13.0722 7.94444C10.2556 7.94444 8.01666 10.1833 8.01666 13C8.01666 15.8167 10.2556 18.0556 13.0722 18.0556C15.8889 18.0556 18.1278 15.8167 18.1278 13C18.1278 10.1833 15.8889 7.94444 13.0722 7.94444ZM13.0722 16.6111C11.05 16.6111 9.46111 15.0222 9.46111 13C9.46111 10.9778 11.05 9.38889 13.0722 9.38889C15.0944 9.38889 16.6833 10.9778 16.6833 13C16.6833 15.0222 15.0944 16.6111 13.0722 16.6111Z" fill="#D8BA5A"/>
<path d="M23.6889 10.6167L21.6667 9.96667L21.2333 8.88333L22.2445 7.00555C22.4611 6.57222 22.3889 5.99444 22.0278 5.63333L20.2945 3.9C19.9333 3.53889 19.3556 3.46666 18.9222 3.68333L17.0445 4.69444L15.9611 4.26111L15.3111 2.23889C15.1667 1.80555 14.7333 1.44444 14.2278 1.44444H11.7722C11.2667 1.44444 10.8333 1.80555 10.7611 2.31111L10.1111 4.33333C9.67779 4.40555 9.31668 4.55 8.95557 4.76666L7.07779 3.75555C6.64446 3.53889 6.06668 3.61111 5.70557 3.97222L3.97224 5.70555C3.61112 6.06667 3.5389 6.64444 3.75557 7.07778L4.69446 8.88333C4.55001 9.24444 4.40557 9.67778 4.26112 10.0389L2.2389 10.6889C1.80557 10.8333 1.44446 11.2667 1.44446 11.7722V14.2278C1.44446 14.7333 1.80557 15.1667 2.31112 15.3111L4.33335 15.9611L4.76668 17.0444L3.75557 18.9222C3.5389 19.3556 3.61112 19.9333 3.97224 20.2944L5.70557 22.0278C6.06668 22.3889 6.64446 22.4611 7.07779 22.2444L8.95557 21.2333L10.0389 21.6667L10.6889 23.7611C10.8333 24.1944 11.2667 24.5556 11.7722 24.5556H14.2278C14.7333 24.5556 15.1667 24.1944 15.3111 23.7611L15.9611 21.6667L17.0445 21.2333L18.9222 22.2444C19.3556 22.4611 19.9333 22.3889 20.2945 22.0278L22.0278 20.2944C22.3889 19.9333 22.4611 19.3556 22.2445 18.9222L21.2333 17.0444L21.6667 15.9611L23.7611 15.3111C24.1945 15.1667 24.5556 14.7333 24.5556 14.2278V11.7722C24.5556 11.2667 24.1945 10.7611 23.6889 10.6167ZM23.1111 14.0111L20.5111 14.8056L20.4389 15.1667L19.7889 16.6833L19.5722 17.0444L20.8722 19.4278L19.4278 20.8722L17.0445 19.5722L16.6833 19.7889C16.1778 20.0778 15.6722 20.2944 15.1667 20.4389L14.8056 20.5111L14.0111 23.1111H11.9889L11.1945 20.5111L10.8333 20.4389L9.31668 19.7889L8.95557 19.5722L6.57224 20.8722L5.12779 19.4278L6.42779 17.0444L6.21112 16.6833C5.92224 16.1778 5.70557 15.6722 5.56112 15.1667L5.4889 14.8056L2.8889 14.0111V11.9889L5.34446 11.2667L5.4889 10.9056C5.63335 10.3278 5.85001 9.82222 6.1389 9.31666L6.35557 8.95555L5.12779 6.57222L6.57224 5.12778L8.88335 6.42778L9.24446 6.21111C9.75001 5.92222 10.2556 5.70555 10.8333 5.56111L11.1945 5.41666L11.9889 2.88889H14.0111L14.8056 5.41666L15.1667 5.56111C15.6722 5.70555 16.1778 5.92222 16.6833 6.21111L17.0445 6.42778L19.4278 5.12778L20.8722 6.57222L19.5722 8.95555L19.7889 9.31666C20.0778 9.82222 20.2945 10.3278 20.4389 10.8333L20.5111 11.1944L23.1111 11.9889V14.0111Z" fill="#D8BA5A"/>
</svg>
