<svg width="256" height="256" viewBox="0 0 256 256" fill="none" xmlns="http://www.w3.org/2000/svg">
<path d="M224.6 103.8C213.4 97.7 198.5 93.4 182 91.3V84C182 71.9 172.4 60.9 155 53.1C139.2 45.9 118.2 42 96 42C73.8 42 52.8 45.9 37 53.1C19.6 60.9 10 71.9 10 84V124C10 136.1 19.6 147.1 37 154.9C48.7861 159.963 61.2528 163.265 74 164.7V172C74 184.1 83.6 195.1 101 202.9C116.8 210.1 137.8 214 160 214C182.2 214 203.2 210.1 219 202.9C236.4 195.1 246 184.1 246 172V132C246 121.3 238.4 111.3 224.6 103.8V103.8ZM218.8 114.3C228.6 119.7 234 125.9 234 132C234 146.2 203.6 162 160 162C152.914 161.978 145.836 161.544 138.8 160.7C144.353 159.223 149.772 157.283 155 154.9C172.4 147.1 182 136.1 182 124V103.4C196.4 105.4 209.3 109.2 218.8 114.3V114.3ZM80.7 153.3H80.4C76.8 153 73.3 152.5 70 152V124.1C78.61 125.355 87.299 125.99 96 126C104.701 125.99 113.39 125.355 122 124.1V152C113.401 153.362 104.706 154.031 96 154C90.8914 154.025 85.7849 153.792 80.7 153.3V153.3ZM170 105.9V124C170 133.5 156.3 143.8 134 149.5V121.8C141.222 120.241 148.261 117.928 155 114.9C160.396 112.616 165.445 109.586 170 105.9ZM96 54C139.6 54 170 69.8 170 84C170 98.2 139.6 114 96 114C52.4 114 22 98.2 22 84C22 69.8 52.4 54 96 54ZM22 124V105.9C26.5549 109.586 31.604 112.616 37 114.9C43.7393 117.928 50.7779 120.241 58 121.8V149.5C35.7 143.8 22 133.5 22 124ZM86 172V165.7C89.3 165.9 92.6 166 96 166C99.4 166 103.8 165.9 107.7 165.6C112.35 167.369 117.132 168.773 122 169.8V197.5C99.7 191.8 86 181.5 86 172V172ZM134 200V172.1C142.61 173.351 151.299 173.986 160 174C168.701 173.99 177.39 173.355 186 172.1V200C168.769 202.667 151.231 202.667 134 200V200ZM198 197.5V169.8C205.222 168.241 212.261 165.928 219 162.9C224.396 160.616 229.445 157.586 234 153.9V172C234 181.5 220.3 191.8 198 197.5Z" fill="white"/>
</svg>
