<svg width="28" height="27" viewBox="0 0 28 27" fill="none" xmlns="http://www.w3.org/2000/svg">
<path d="M21.5625 19.5114L18.75 21.0937L14.25 23.625L6.6459 20.0213M23.25 16.875V8.4375L15.9375 4.48271M12.2812 4.48256L5.25 8.4375V16.875M14.25 9.5625L15.9375 10.5469L17.625 11.5312V15.4687L15.9375 16.4531L14.25 17.4375L12.5625 16.4531L10.875 15.4687V11.5312L12.5625 10.5469L14.25 9.5625ZM14.25 9.5625V5.625M17.625 15.1875L21.5625 17.4375M10.875 15.1875L6.9375 17.4375" stroke="white" stroke-width="2" stroke-linecap="round" stroke-linejoin="round"/>
<path d="M14.25 5.625C15.182 5.625 15.9375 4.86948 15.9375 3.9375C15.9375 3.00552 15.182 2.25 14.25 2.25C13.318 2.25 12.5625 3.00552 12.5625 3.9375C12.5625 4.86948 13.318 5.625 14.25 5.625Z" stroke="white" stroke-width="2" stroke-linecap="round" stroke-linejoin="round"/>
<path d="M5.25 20.25C6.18198 20.25 6.9375 19.4945 6.9375 18.5625C6.9375 17.6305 6.18198 16.875 5.25 16.875C4.31802 16.875 3.5625 17.6305 3.5625 18.5625C3.5625 19.4945 4.31802 20.25 5.25 20.25Z" stroke="white" stroke-width="2" stroke-linecap="round" stroke-linejoin="round"/>
<path d="M23.25 20.25C24.182 20.25 24.9375 19.4945 24.9375 18.5625C24.9375 17.6305 24.182 16.875 23.25 16.875C22.318 16.875 21.5625 17.6305 21.5625 18.5625C21.5625 19.4945 22.318 20.25 23.25 20.25Z" stroke="white" stroke-width="2" stroke-linecap="round" stroke-linejoin="round"/>
</svg>
